<svg width="28" height="33" viewBox="0 0 28 33" fill="none" xmlns="http://www.w3.org/2000/svg">
<path d="M7.55859 22.0781H7.96875C9.08203 22.0781 10.0781 22.5078 10.957 23.3672C11.8555 24.207 12.3047 25.2617 12.3047 26.5312C12.3047 27.7812 11.8555 28.8164 10.957 29.6367C10.0781 30.4375 8.98438 30.8379 7.67578 30.8379C6.25 30.8379 5.05859 30.2715 4.10156 29.1387C3.16406 27.9863 2.69531 26.3555 2.69531 24.2461C2.69531 22.3125 3.10547 20.5059 3.92578 18.8262C4.76562 17.127 5.78125 15.7891 6.97266 14.8125C8.18359 13.8164 9.25781 13.3184 10.1953 13.3184C10.8203 13.3184 11.3086 13.5039 11.6602 13.875C12.0117 14.2461 12.1875 14.7246 12.1875 15.3105C12.1875 16.1699 11.8066 16.8047 11.0449 17.2148C10.0098 17.7812 9.18945 18.4453 8.58398 19.207C7.97852 19.9688 7.63672 20.9258 7.55859 22.0781ZM20.5078 22.0781H20.8887C21.9824 22.0781 22.9688 22.5078 23.8477 23.3672C24.7461 24.207 25.1953 25.2617 25.1953 26.5312C25.1953 27.7617 24.7461 28.7969 23.8477 29.6367C22.9688 30.4766 21.875 30.8965 20.5664 30.8965C19.1211 30.8965 17.9297 30.3105 16.9922 29.1387C16.0547 27.9668 15.5859 26.3359 15.5859 24.2461C15.5859 22.7422 15.8301 21.3262 16.3184 19.998C16.8066 18.6699 17.4316 17.5176 18.1934 16.541C18.9746 15.5449 19.8047 14.7637 20.6836 14.1973C21.582 13.6113 22.3828 13.3184 23.0859 13.3184C23.7305 13.3184 24.2188 13.5039 24.5508 13.875C24.9023 14.2266 25.0781 14.7051 25.0781 15.3105C25.0781 16.1895 24.6973 16.8242 23.9355 17.2148C22.8613 17.8203 22.0508 18.4941 21.5039 19.2363C20.957 19.959 20.625 20.9062 20.5078 22.0781Z" fill="#224F34"/>
</svg>
